<?xml version="1.0" encoding="UTF-8" standalone="no"?>
<!-- Generator: Adobe Illustrator 15.0.2, SVG Export Plug-In . SVG Version: 6.00 Build 0)  -->

<svg
   xmlns:osb="http://www.openswatchbook.org/uri/2009/osb"
   xmlns:dc="http://purl.org/dc/elements/1.1/"
   xmlns:cc="http://creativecommons.org/ns#"
   xmlns:rdf="http://www.w3.org/1999/02/22-rdf-syntax-ns#"
   xmlns:svg="http://www.w3.org/2000/svg"
   xmlns="http://www.w3.org/2000/svg"
   xmlns:xlink="http://www.w3.org/1999/xlink"
   xmlns:sodipodi="http://sodipodi.sourceforge.net/DTD/sodipodi-0.dtd"
   xmlns:inkscape="http://www.inkscape.org/namespaces/inkscape"
   version="1.1"
   id="ORANGE_BACKGROUNDS"
   x="0px"
   y="0px"
   width="80"
   height="80"
   viewBox="0 0 80 80"
   enable-background="new 0 0 96 96"
   xml:space="preserve"
   inkscape:version="0.92.5 (2060ec1f9f, 2020-04-08)"
   sodipodi:docname="quickddit.svg"
   style="display:inline"
   inkscape:export-filename="D:\Dokumente und Einstellungen\anne\Desktop\NOKIA\NOK1127_Inkscape\2011_MEEGO_ICON_CREATION_KIT_INKSCAPE\test3.png"
   inkscape:export-xdpi="90"
   inkscape:export-ydpi="90"><metadata
   id="metadata3069"><rdf:RDF><cc:Work
       rdf:about=""><dc:format>image/svg+xml</dc:format><dc:type
         rdf:resource="http://purl.org/dc/dcmitype/StillImage" /><dc:title /></cc:Work></rdf:RDF></metadata><defs
   id="defs3067"><marker
     inkscape:stockid="Arrow1Lstart"
     orient="auto"
     refY="0.0"
     refX="0.0"
     id="Arrow1Lstart"
     style="overflow:visible"
     inkscape:isstock="true"><path
       id="path5706"
       d="M 0.0,0.0 L 5.0,-5.0 L -12.5,0.0 L 5.0,5.0 L 0.0,0.0 z "
       style="fill-rule:evenodd;stroke:none;stroke-width:1pt;stroke-opacity:1;fill:#f4952f;fill-opacity:1"
       transform="scale(0.8) translate(12.5,0)" /></marker><linearGradient
     id="ORANGE3_3_"
     gradientUnits="userSpaceOnUse"
     x1="38.9995"
     y1="0"
     x2="38.9995"
     y2="78.000504"><stop
       offset="0"
       style="stop-color:#F4952F"
       id="stop7-37" /><stop
       offset="0.2211"
       style="stop-color:#EE7C27"
       id="stop9-10" /><stop
       offset="0.6877"
       style="stop-color:#E03E13"
       id="stop11-7" /><stop
       offset="0.7212"
       style="stop-color:#DF3912"
       id="stop13-3" /></linearGradient><linearGradient
     id="HIGHLIGHT_RIM_3_-49"
     gradientUnits="userSpaceOnUse"
     x1="38.9995"
     y1="-7.7793002"
     x2="38.9995"
     y2="133.2713"
     gradientTransform="translate(1,17)"><stop
       offset="0"
       style="stop-color:#FFFFFF"
       id="stop17-6" /><stop
       offset="1"
       style="stop-color:#000000"
       id="stop19-5" /></linearGradient><linearGradient
     y2="78.000504"
     x2="38.9995"
     y1="0"
     x1="38.9995"
     gradientUnits="userSpaceOnUse"
     id="linearGradient3021-10"
     xlink:href="#ORANGE3_3_"
     inkscape:collect="always"
     gradientTransform="matrix(2.6468339,0,0,1.0708315,-63.364641,14.513813)" /><linearGradient
     id="SVGID_1_-1"
     gradientUnits="userSpaceOnUse"
     x1="298.2988"
     y1="398.78659"
     x2="298.2988"
     y2="464.09549"
     osb:paint="gradient"><stop
       offset="0.3232"
       style="stop-color:#F7FAEE"
       id="stop4286" /><stop
       offset="1"
       style="stop-color:#D2CAC5"
       id="stop4288" /></linearGradient></defs><sodipodi:namedview
   pagecolor="#ffffff"
   bordercolor="#666666"
   borderopacity="1"
   objecttolerance="1"
   gridtolerance="1"
   guidetolerance="1"
   inkscape:pageopacity="0"
   inkscape:pageshadow="2"
   inkscape:window-width="1910"
   inkscape:window-height="1013"
   id="namedview3065"
   showgrid="false"
   inkscape:zoom="7.24"
   inkscape:cx="17.606476"
   inkscape:cy="38.925736"
   inkscape:window-x="5"
   inkscape:window-y="34"
   inkscape:window-maximized="1"
   inkscape:current-layer="g3919"
   showguides="true"
   inkscape:guide-bbox="true"><inkscape:grid
     type="xygrid"
     id="grid3071"
     empspacing="5"
     visible="true"
     enabled="true"
     snapvisiblegridlinesonly="true" /><sodipodi:guide
     orientation="0,1"
     position="10.992188,69"
     id="guide3020" /><sodipodi:guide
     orientation="0,1"
     position="69,11.003906"
     id="guide3022" /><sodipodi:guide
     orientation="1,0"
     position="10.992188,69.007813"
     id="guide3024" /><sodipodi:guide
     orientation="1,0"
     position="68.996094,11.007813"
     id="guide3026" /></sodipodi:namedview>
<linearGradient
   id="RED_x2F_ORANGE_5_2_"
   gradientUnits="userSpaceOnUse"
   x1="47.9995"
   y1="8.0107002"
   x2="47.9995"
   y2="87.9897">
	<stop
   offset="0"
   style="stop-color:#FFDB62"
   id="stop3054" />
	<stop
   offset="0.1393"
   style="stop-color:#FAD15C"
   id="stop3056" />
	<stop
   offset="0.3741"
   style="stop-color:#EDB74D"
   id="stop3058" />
	<stop
   offset="0.4848"
   style="stop-color:#E6A844"
   id="stop3060" />
	<stop
   offset="1"
   style="stop-color:#C96B25"
   id="stop3062" />
</linearGradient>

<g
   inkscape:groupmode="layer"
   id="layer5"
   inkscape:label="DO NOT EDIT -  Bounding Box"
   style="display:none"
   transform="translate(0,-16)"
   sodipodi:insensitive="true"><rect
     style="fill:#000000;fill-opacity:0;stroke:none;display:inline"
     id="rect3119"
     width="80"
     height="80"
     x="0"
     y="16" /></g><g
   transform="translate(0,-16)"
   style="display:inline"
   inkscape:label="COLOURED BACKGROUND: Orange 3 (DELETE IF NOT USED)"
   id="g3919"
   sodipodi:insensitive="true"
   inkscape:groupmode="layer"><path
     style="fill:url(#linearGradient3021-10);fill-opacity:1;stroke-width:0.3367084;stroke-miterlimit:4;stroke-dasharray:none"
     inkscape:connector-curvature="0"
     id="ORANGE3_2_"
     d="m 143.0884,56.276242 c 0,30.939536 -26.74627,41.762432 -103.226523,41.762432 -76.480262,0 -103.226518,-10.822896 -103.226518,-41.762432 0,-30.940606 26.746256,-41.762429 103.226518,-41.762429 76.480253,0 103.226523,10.821823 103.226523,41.762429 z" /></g><g
   inkscape:groupmode="layer"
   id="layer7"
   inkscape:label="CREATE INNER SHADOW HERE"
   style="display:inline"
   transform="translate(0,-16)" /><g
   inkscape:groupmode="layer"
   id="layer2"
   inkscape:label="PLACE YOUR GRAPHIC HERE"
   style="display:inline;opacity:0.98999999"
   transform="translate(0,-16)"><g
     transform="matrix(0.13010819,0,0,0.13010819,6.1189645,22.482908)"
     id="Layer_3"><polygon
       style="fill:#972c0a"
       points="448.191,389.3 412.828,410.54 256.645,213.307 "
       id="polygon24" /><polygon
       style="fill:#ffffff"
       points="449.191,381.8 421.371,410.54 256.645,213.307 "
       id="polygon26" /><circle
       style="fill:#972c0a"
       cx="438.28101"
       cy="405.17001"
       r="44.5"
       id="circle28" /><path
       style="fill:#972c0a"
       inkscape:connector-curvature="0"
       d="M 160.187,124.526 C 55.144,194.999 11.317,313.727 62.296,389.712 c 50.977,75.982 177.457,80.455 282.5,9.981 105.043,-70.472 148.869,-189.2 97.891,-265.185 -50.98,-75.985 -177.458,-80.455 -282.5,-9.982 z m 158.057,202.736 c -83.325,55.902 -180.853,56.539 -217.832,1.418 -36.981,-55.12 0.591,-145.122 83.915,-201.025 83.327,-55.904 180.852,-56.538 217.834,-1.418 36.981,55.12 -0.591,145.123 -83.917,201.025 z"
       id="path30" /><path
       style="fill:#ffffff"
       inkscape:connector-curvature="0"
       d="M 157.187,115.526 C 52.144,185.999 8.317,304.727 59.296,380.712 c 50.977,75.982 177.457,80.455 282.5,9.981 105.043,-70.472 148.869,-189.2 97.891,-265.185 -50.98,-75.985 -177.458,-80.455 -282.5,-9.982 z m 158.057,202.736 c -83.325,55.902 -180.853,56.539 -217.832,1.418 -36.981,-55.12 0.591,-145.122 83.915,-201.025 83.327,-55.904 180.852,-56.538 217.834,-1.418 36.981,55.12 -0.591,145.122 -83.917,201.025 z"
       id="path32" /><circle
       style="fill:#ffffff"
       cx="435.28101"
       cy="396.17001"
       r="44.5"
       id="circle34" /><path
       style="fill:none"
       inkscape:connector-curvature="0"
       d="M 399.162,117.236"
       id="path36" /><path
       style="fill:none"
       inkscape:connector-curvature="0"
       d="M 97.413,319.68"
       id="path38" /></g></g></svg>